<svg width="396.00000000000006" height="220.66102698535894" viewBox="0 0 193 107.5443894145815" class="looka-1j8o68f"><defs id="SvgjsDefs1803"></defs><g id="SvgjsG1804" featurekey="symbolContainer" transform="matrix(1,0,0,1,0,28)" fill="#111111">    <path xmlns="http://www.w3.org/2000/svg" fill-rule="nonzero" d="             M0,0             H73             V52             H0,0             z             M4,4             v44             h65             v-44             z     "></path></g><g id="SvgjsG1805" featurekey="symbolFeature-0" transform="matrix(0.3270926030148484,0,0,0.3270926030148484,16.57462666419111,37.586739450959726)" fill="#111111"><path xmlns="http://www.w3.org/2000/svg" d="M123.59,55.27C123.481,55.27,123.481,55.27,123.59,55.27L123.59,55.27C123.481,55.27,123.59,55.27,123.59,55.27z"></path><path xmlns="http://www.w3.org/2000/svg" d="M49.522,48.227c-0.053-0.017-0.106-0.022-0.161-0.013c-0.152,0.025-0.503,0.1-0.903,0.309c-0.055,0.029-0.123,0.029-0.177,0  c-0.4-0.209-0.75-0.284-0.903-0.309c-0.055-0.009-0.108-0.004-0.161,0.013c-1.668,0.53-2.625,2.504-2.625,2.504  s0.3,0.305,0.764,0.232c0.3-0.047,1.046-0.283,1.537-0.444c0.304-0.1,0.629-0.091,0.929,0.023l0,0c0.354,0.135,0.741,0.135,1.094,0  c0.3-0.114,0.625-0.123,0.929-0.023c0.491,0.161,1.238,0.396,1.538,0.444c0.464,0.073,0.764-0.232,0.764-0.232  S51.19,48.757,49.522,48.227z"></path><path xmlns="http://www.w3.org/2000/svg" d="M98.616,25.247C98.616,25.247,98.616,25.246,98.616,25.247c-0.021-0.033-0.047-0.062-0.074-0.087  c-0.075-0.07-0.173-0.118-0.281-0.131c-0.013-0.001-0.025-0.002-0.037-0.003c-13.436-0.677-33.168,1.375-36.154,1.699l-1.388-3.551  c-3.012-7.707-12.158-11.624-20.394-8.726l-1.857,0.653c-4.153,1.46-7.421,4.374-9.202,8.205c-1.65,3.549-1.805,7.496-0.435,11.114  l1.342,3.542c-2.57,1.654-18.925,12.281-28.671,21.095c-0.155,0.141-0.207,0.363-0.128,0.558c0.076,0.189,0.26,0.313,0.464,0.313  c0.005,0,0.01,0,0.015,0c0.175-0.005,13.427-0.501,31.099-7.8c-0.157,2.341-0.758,4.97-2.271,7.535  c-0.876,1.485-2.036,2.776-3.335,3.909c-3.281,2.864-13.125,12.647-7.844,22.935c0,0,0.301-6.314,5.316-9.547  c1.318-0.849,2.849-1.308,4.407-1.487l3.057-0.352c0,0,2.407-0.359,4.909-1.404c2.369-0.99,4.1-3.05,4.67-5.554  c0.585-2.572,0.882-6.628-0.17-12.638c1.282,0.911,2.736,1.691,4.331,2.313c0.632,0.251,1.376,0.373,2.275,0.373  c0.899,0,1.644-0.122,2.273-0.372c1.39-0.542,2.666-1.206,3.818-1.966l-0.392,7.872c0,0-0.175,4.671,1.711,7.515  c1.887,2.844,6.44,2.821,6.44,2.821s-3.844-1.859-4.563-5.984c-0.479-2.75,0.181-5.042,0.674-6.264  c0.203-0.503,0.402-1.006,0.591-1.513c0.471-1.256,0.983-2.495,1.544-3.714c1.337-2.906,3.272-9.177,3.881-16.214  c22.531-4.941,34.065-14.302,34.281-14.481c0.001,0,0.001,0,0.001-0.001c0,0,0,0,0.001,0v0c0,0,0,0,0,0h0.001  c0,0,0.002,0,0.002-0.002c0,0,0,0,0,0c0.021-0.018,0.041-0.037,0.059-0.058c0,0,0,0,0.001-0.001c0,0,0,0,0,0  c0.063-0.074,0.105-0.168,0.115-0.272c0.003-0.022,0.003-0.044,0.003-0.066C98.698,25.414,98.666,25.323,98.616,25.247z   M50.348,57.374c-0.571,0.228-1.255,0.338-2.09,0.338c-0.834,0-1.518-0.11-2.092-0.339c-1.627-0.634-3.105-1.431-4.396-2.37  l-0.253-0.179c-1.673-1.159-2.941-2.859-3.677-4.869c4.402-2.054,9.007-4.52,13.707-7.505c3.136-1.992,6.186-3.725,9.139-5.261  v3.387c0,0.207-0.009,0.414-0.024,0.621c-0.044,0.561-0.123,1.131-0.236,1.695l-1.328,5.682c-0.596,2.613-2.051,4.834-4.099,6.252  l-0.255,0.18C53.456,55.942,51.978,56.739,50.348,57.374z M65.196,34.946l-0.771,1.282c0.001-0.305,0.005-0.608-0.001-0.914  C64.682,35.191,64.941,35.065,65.196,34.946z M64.401,37.724l2-3.328c0.329-0.149,0.656-0.297,0.982-0.441l-3.042,5.063  C64.367,38.589,64.386,38.157,64.401,37.724z M65.124,39.172l3.445-5.733c0.323-0.138,0.641-0.271,0.96-0.404l-3.564,5.931  C65.681,39.033,65.412,39.106,65.124,39.172z M66.99,38.715l3.702-6.161c0.317-0.128,0.628-0.249,0.941-0.372l-3.802,6.327  C67.555,38.58,67.27,38.646,66.99,38.715z M68.865,38.244l3.908-6.503c0.311-0.118,0.621-0.235,0.927-0.348l-3.974,6.613  C69.437,38.085,69.158,38.167,68.865,38.244z M70.775,37.716l4.043-6.726c0.305-0.109,0.611-0.219,0.911-0.323l-4.093,6.811  C71.357,37.559,71.059,37.636,70.775,37.716z M72.708,37.149l4.119-6.854c0.301-0.1,0.597-0.197,0.893-0.293l-4.132,6.875  C73.297,36.968,73.005,37.059,72.708,37.149z M74.663,36.546l4.14-6.889c0.297-0.092,0.586-0.178,0.877-0.266l-4.117,6.851  C75.261,36.343,74.972,36.446,74.663,36.546z M76.664,35.867l4.08-6.789c0.29-0.084,0.581-0.168,0.865-0.247l-4.044,6.73  C77.274,35.663,76.961,35.764,76.664,35.867z M78.691,35.141l3.962-6.593c0.287-0.076,0.571-0.151,0.852-0.223l-3.89,6.472  C79.313,34.912,79.001,35.026,78.691,35.141z M80.755,34.356l3.781-6.29c0.284-0.069,0.56-0.133,0.836-0.198l-3.669,6.105  C81.389,34.1,81.078,34.228,80.755,34.356z M82.862,33.5l3.523-5.862c0.278-0.062,0.555-0.123,0.825-0.18l-3.375,5.617  C83.51,33.216,83.198,33.357,82.862,33.5z M85.021,32.557l3.188-5.305c0.277-0.055,0.544-0.105,0.811-0.155l-3,4.992  C85.686,32.246,85.369,32.4,85.021,32.557z M87.24,31.515l2.761-4.595c0.272-0.048,0.538-0.093,0.798-0.135l-2.535,4.218  C87.926,31.172,87.597,31.341,87.24,31.515z M89.529,30.354l2.237-3.722c0.269-0.04,0.532-0.079,0.786-0.114l-1.968,3.275  C90.247,29.977,89.889,30.165,89.529,30.354z M93.007,28.411c-0.351,0.209-0.716,0.423-1.106,0.645l1.601-2.663  c0.268-0.033,0.526-0.064,0.772-0.091L93.007,28.411z M94.391,27.564l0.816-1.358c0.532-0.05,1.006-0.088,1.401-0.114  C96.057,26.482,95.302,26.988,94.391,27.564z"></path><path xmlns="http://www.w3.org/2000/svg" d="M49.316,51.319c0,0-0.467,0.241-0.947,0.241c-0.48,0-0.947-0.241-0.947-0.241c-1.653-0.876-2.469,0.3-2.469,0.3  s1.499,2.422,3.417,2.402c1.918,0.02,3.417-2.402,3.417-2.402S50.969,50.443,49.316,51.319z"></path></g><g id="SvgjsG1806" featurekey="nameFeature-0" transform="matrix(3.69822498772109,0,0,3.69822498772109,88.26626947634743,-43.19526898519103)" fill="#111111"><path d="M7.88 34.84 l12 0 l0 5.88 l-18.6 0 l0 -6.88 l11.96 -15.92 l-11.96 0 l0 -5.88 l18.6 0 l0 6.88 z M19.12 39.96 l0 -4.36 l-12.76 0 l12.76 -16.96 l0 -5.84 l-17.12 0 l0 4.4 l12.76 0 l-12.76 16.92 l0 5.84 l17.12 0 z M22.36 11.68 l5.96 0 l0 29.08 l-5.96 0 l0 -29.08 z M27.560000000000002 40 l0 -27.56 l-4.44 0 l0 27.56 l4.44 0 z"></path></g></svg>